<svg width="150" height="26" viewBox="0 0 150 26" fill="none" xmlns="http://www.w3.org/2000/svg">
<path d="M5.38281 0.117188V25H0.683105V0.117188H5.38281ZM14.543 10.4565V25H10.0312V6.50879H14.2695L14.543 10.4565ZM13.8252 15.0879H12.4922C12.5036 13.7435 12.6859 12.5244 13.0391 11.4307C13.3923 10.3369 13.8879 9.39697 14.5259 8.61084C15.1753 7.82471 15.9443 7.22087 16.833 6.79932C17.7217 6.37777 18.7129 6.16699 19.8066 6.16699C20.6953 6.16699 21.4985 6.29232 22.2163 6.54297C22.9341 6.79362 23.5493 7.19238 24.062 7.73926C24.5861 8.28613 24.9849 9.00391 25.2583 9.89258C25.5431 10.7699 25.6855 11.8522 25.6855 13.1396V25H21.1396V13.1055C21.1396 12.2624 21.0143 11.5959 20.7637 11.106C20.5244 10.616 20.1712 10.2686 19.7041 10.0635C19.2484 9.8584 18.6844 9.75586 18.0122 9.75586C17.3172 9.75586 16.7077 9.89827 16.1836 10.1831C15.6709 10.4565 15.238 10.8382 14.8848 11.3281C14.543 11.818 14.2809 12.382 14.0986 13.02C13.9163 13.658 13.8252 14.3473 13.8252 15.0879Z" fill="#00557B"/>
<path d="M38.7593 20.1294L44.9629 0.117188H50.1753L41.3911 25H37.9219L38.7593 20.1294ZM33.0342 0.117188L39.2036 20.1294L40.0923 25H36.5889L27.8389 0.117188H33.0342ZM59.9507 25.3418C58.5493 25.3418 57.2904 25.1139 56.1738 24.6582C55.0573 24.2025 54.106 23.5701 53.3198 22.7612C52.5451 21.9409 51.9469 20.9896 51.5254 19.9072C51.1152 18.8135 50.9102 17.64 50.9102 16.3867V15.7031C50.9102 14.279 51.1152 12.9858 51.5254 11.8237C51.9355 10.6502 52.5166 9.64193 53.2686 8.79883C54.0205 7.95573 54.9206 7.30632 55.9688 6.85059C57.0169 6.39486 58.1733 6.16699 59.438 6.16699C60.7482 6.16699 61.9046 6.38916 62.9072 6.8335C63.9098 7.26644 64.7472 7.88167 65.4194 8.6792C66.0916 9.47673 66.5986 10.4338 66.9404 11.5503C67.2822 12.6554 67.4531 13.8802 67.4531 15.2246V17.1216H52.9609V14.0112H63.0098V13.6694C62.987 12.9517 62.8503 12.2965 62.5996 11.7041C62.349 11.1003 61.9616 10.6217 61.4375 10.2686C60.9134 9.90397 60.2355 9.72168 59.4038 9.72168C58.7316 9.72168 58.1449 9.86979 57.6436 10.166C57.1536 10.4508 56.7435 10.861 56.4131 11.3965C56.0941 11.9206 55.8548 12.5472 55.6953 13.2764C55.5358 14.0055 55.4561 14.8145 55.4561 15.7031V16.3867C55.4561 17.1615 55.5586 17.8792 55.7637 18.54C55.9801 19.2008 56.2935 19.7762 56.7036 20.2661C57.1252 20.7446 57.6265 21.1206 58.2075 21.394C58.8 21.6561 59.4722 21.7871 60.2241 21.7871C61.1698 21.7871 62.0243 21.6048 62.7876 21.2402C63.5623 20.8643 64.2345 20.3117 64.8042 19.5825L67.0771 21.9409C66.6898 22.5106 66.1657 23.0575 65.5049 23.5815C64.8555 24.1056 64.0693 24.5329 63.1465 24.8633C62.2236 25.1823 61.1584 25.3418 59.9507 25.3418ZM74.9043 10.4565V25H70.3926V6.50879H74.6309L74.9043 10.4565ZM74.1865 15.0879H72.8535C72.8649 13.7435 73.0472 12.5244 73.4004 11.4307C73.7536 10.3369 74.2492 9.39697 74.8872 8.61084C75.5366 7.82471 76.3057 7.22087 77.1943 6.79932C78.083 6.37777 79.0742 6.16699 80.168 6.16699C81.0566 6.16699 81.8599 6.29232 82.5776 6.54297C83.2954 6.79362 83.9106 7.19238 84.4233 7.73926C84.9474 8.28613 85.3462 9.00391 85.6196 9.89258C85.9045 10.7699 86.0469 11.8522 86.0469 13.1396V25H81.501V13.1055C81.501 12.2624 81.3757 11.5959 81.125 11.106C80.8857 10.616 80.5326 10.2686 80.0654 10.0635C79.6097 9.8584 79.0457 9.75586 78.3735 9.75586C77.6785 9.75586 77.069 9.89827 76.5449 10.1831C76.0322 10.4565 75.5993 10.8382 75.2461 11.3281C74.9043 11.818 74.6423 12.382 74.46 13.02C74.2777 13.658 74.1865 14.3473 74.1865 15.0879ZM98.7788 6.50879V9.75586H88.1831V6.50879H98.7788ZM91.02 1.96289H95.5488V19.668C95.5488 20.2148 95.6229 20.6364 95.771 20.9326C95.9191 21.2288 96.1413 21.4282 96.4375 21.5308C96.7337 21.6333 97.0869 21.6846 97.4971 21.6846C97.7933 21.6846 98.0667 21.6675 98.3174 21.6333C98.568 21.5991 98.7788 21.5649 98.9497 21.5308L98.9668 24.9146C98.5908 25.0399 98.1636 25.1424 97.6851 25.2222C97.2179 25.3019 96.6882 25.3418 96.0957 25.3418C95.0817 25.3418 94.193 25.1709 93.4297 24.8291C92.6663 24.4759 92.0739 23.9119 91.6523 23.1372C91.2308 22.3511 91.02 21.3143 91.02 20.0269V1.96289ZM112.792 20.6079V6.50879H117.338V25H113.066L112.792 20.6079ZM113.374 16.7798L114.775 16.7456C114.775 17.9875 114.638 19.1325 114.365 20.1807C114.091 21.2288 113.664 22.1403 113.083 22.915C112.513 23.6784 111.79 24.2765 110.913 24.7095C110.035 25.131 108.999 25.3418 107.802 25.3418C106.891 25.3418 106.059 25.2165 105.307 24.9658C104.555 24.7038 103.906 24.2993 103.359 23.7524C102.823 23.1942 102.408 22.4821 102.111 21.6162C101.815 20.7389 101.667 19.6851 101.667 18.4546V6.50879H106.179V18.4888C106.179 19.104 106.247 19.6167 106.384 20.0269C106.532 20.437 106.731 20.7731 106.982 21.0352C107.244 21.2858 107.546 21.4681 107.888 21.582C108.241 21.6846 108.617 21.7358 109.016 21.7358C110.109 21.7358 110.97 21.5194 111.596 21.0864C112.234 20.6421 112.69 20.0496 112.963 19.3091C113.237 18.5571 113.374 17.714 113.374 16.7798ZM125.849 10.2856V25H121.337V6.50879H125.61L125.849 10.2856ZM131.472 6.38916L131.403 10.5933C131.153 10.5477 130.868 10.5135 130.549 10.4907C130.241 10.4679 129.951 10.4565 129.677 10.4565C128.982 10.4565 128.373 10.5534 127.849 10.7471C127.325 10.9294 126.886 11.1971 126.533 11.5503C126.191 11.9035 125.929 12.3364 125.747 12.8491C125.564 13.3504 125.462 13.9201 125.439 14.5581L124.465 14.4385C124.465 13.265 124.584 12.1769 124.824 11.1743C125.063 10.1717 125.41 9.29443 125.866 8.54248C126.322 7.79053 126.892 7.20947 127.575 6.79932C128.27 6.37777 129.068 6.16699 129.968 6.16699C130.218 6.16699 130.486 6.18978 130.771 6.23535C131.067 6.26953 131.301 6.3208 131.472 6.38916ZM141.914 25.3418C140.512 25.3418 139.253 25.1139 138.137 24.6582C137.02 24.2025 136.069 23.5701 135.283 22.7612C134.508 21.9409 133.91 20.9896 133.488 19.9072C133.078 18.8135 132.873 17.64 132.873 16.3867V15.7031C132.873 14.279 133.078 12.9858 133.488 11.8237C133.898 10.6502 134.479 9.64193 135.231 8.79883C135.983 7.95573 136.883 7.30632 137.932 6.85059C138.98 6.39486 140.136 6.16699 141.401 6.16699C142.711 6.16699 143.868 6.38916 144.87 6.8335C145.873 7.26644 146.71 7.88167 147.382 8.6792C148.055 9.47673 148.562 10.4338 148.903 11.5503C149.245 12.6554 149.416 13.8802 149.416 15.2246V17.1216H134.924V14.0112H144.973V13.6694C144.95 12.9517 144.813 12.2965 144.562 11.7041C144.312 11.1003 143.924 10.6217 143.4 10.2686C142.876 9.90397 142.198 9.72168 141.367 9.72168C140.694 9.72168 140.108 9.86979 139.606 10.166C139.117 10.4508 138.706 10.861 138.376 11.3965C138.057 11.9206 137.818 12.5472 137.658 13.2764C137.499 14.0055 137.419 14.8145 137.419 15.7031V16.3867C137.419 17.1615 137.521 17.8792 137.727 18.54C137.943 19.2008 138.256 19.7762 138.667 20.2661C139.088 20.7446 139.589 21.1206 140.17 21.394C140.763 21.6561 141.435 21.7871 142.187 21.7871C143.133 21.7871 143.987 21.6048 144.75 21.2402C145.525 20.8643 146.197 20.3117 146.767 19.5825L149.04 21.9409C148.653 22.5106 148.129 23.0575 147.468 23.5815C146.818 24.1056 146.032 24.5329 145.109 24.8633C144.187 25.1823 143.121 25.3418 141.914 25.3418Z" fill="#0036F8"/>
</svg>
